# Blender 4.1.1
# www.blender.org
mtllib screen.mtl
o Projector_Screen_Material_#27_0
v -88.284195 91.926292 0.000005
v -88.284195 97.613701 0.000005
v 98.014603 97.613701 0.000005
v 98.014603 91.926292 0.000005
v -88.284195 97.613701 4.283843
v -88.284195 91.926292 4.283842
v 98.014603 91.926292 4.283842
v 98.014603 97.613701 4.283843
v -86.190094 0.000000 3.331011
v -86.190094 0.000000 0.952806
v 95.920502 0.000000 0.952806
v 95.920502 0.000000 3.331011
v 101.971786 98.706871 5.004308
v 101.971786 90.833122 5.004307
v 101.971786 90.833122 -0.720461
v 101.971786 98.706871 -0.720459
v 98.014603 97.613701 4.283843
v 98.014603 97.613701 0.000005
v -88.284195 97.613701 0.000005
v -88.284195 97.613701 4.283843
v -92.241379 90.833122 5.004307
v -92.241379 98.706871 5.004308
v -92.241379 98.706871 -0.720459
v -92.241379 90.833122 -0.720461
v 98.014603 90.587440 -0.882382
v 98.014603 98.952553 -0.882380
v 101.971786 98.706871 -0.720459
v 101.971786 90.833122 -0.720461
v -88.284195 98.952553 -0.882380
v -88.284195 90.587440 -0.882382
v -92.241379 90.833122 -0.720461
v -92.241379 98.706871 -0.720459
v 98.014603 98.952553 5.166229
v 98.014603 90.587440 5.166228
v 101.971786 90.833122 5.004307
v 101.971786 98.706871 5.004308
v -88.284195 90.587440 5.166228
v -88.284195 98.952553 5.166229
v -92.241379 98.706871 5.004308
v -92.241379 90.833122 5.004307
v 98.014603 90.587440 5.166228
v 98.014603 90.587440 -0.882382
v 101.971786 90.833122 -0.720461
v 101.971786 90.833122 5.004307
v -88.284195 90.587440 -0.882382
v -88.284195 90.587440 5.166228
v -92.241379 90.833122 5.004307
v -92.241379 90.833122 -0.720461
v -88.284195 98.952553 5.166229
v -88.284195 98.952553 -0.882380
v -92.241379 98.706871 -0.720459
v -92.241379 98.706871 5.004308
v 98.014603 98.952553 -0.882380
v 98.014603 98.952553 5.166229
v 101.971786 98.706871 5.004308
v 101.971786 98.706871 -0.720459
v 98.014603 98.952553 -0.882380
v 98.014603 90.587440 -0.882382
v 98.014603 91.926292 0.000005
v 98.014603 97.613701 0.000005
v 98.014603 98.952553 5.166229
v 98.014603 97.613701 4.283843
v 98.014603 90.587440 5.166228
v 98.014603 91.926292 4.283842
v -88.284195 90.587440 -0.882382
v -88.284195 98.952553 -0.882380
v -88.284195 97.613701 0.000005
v -88.284195 91.926292 0.000005
v -88.284195 90.587440 5.166228
v -88.284195 91.926292 4.283842
v -88.284195 98.952553 5.166229
v -88.284195 97.613701 4.283843
v 95.920502 91.926292 0.952820
v -86.190094 91.926292 0.952820
v -88.284195 91.926292 0.000005
v 98.014603 91.926292 0.000005
v 95.920502 91.926292 3.331026
v 98.014603 91.926292 4.283842
v -86.190094 91.926292 3.331026
v -88.284195 91.926292 4.283842
v -83.406693 3.828522 0.952806
v -83.406693 90.004700 0.952820
v 93.137100 90.004700 0.952820
v 93.137100 3.828522 0.952806
v 95.920502 1.906929 0.952806
v 95.920502 91.926292 0.952820
v 95.920502 91.926292 3.331026
v 95.920502 1.906929 3.331012
v 93.137100 3.828522 3.331012
v 93.137100 90.004700 3.331026
v -83.406693 90.004700 3.331026
v -83.406693 3.828522 3.331012
v -86.190094 1.906929 3.331012
v -86.190094 91.926292 3.331026
v -86.190094 91.926292 0.952820
v -86.190094 1.906929 0.952806
v -86.190094 1.906929 0.952806
v 95.920502 1.906929 0.952806
v 95.920502 0.000000 0.952806
v -86.190094 0.000000 0.952806
v 95.920502 1.906929 0.952806
v 95.920502 1.906929 3.331012
v 95.920502 0.000000 3.331011
v 95.920502 0.000000 0.952806
v 95.920502 1.906929 7.140678
v -86.190094 1.906929 7.140678
v -86.190094 0.000000 7.140678
v 95.920502 0.000000 7.140678
v -86.190094 1.906929 3.331012
v -86.190094 1.906929 0.952806
v -86.190094 0.000000 0.952806
v -86.190094 0.000000 3.331011
v 95.920502 0.000000 7.140678
v -86.190094 0.000000 7.140678
v 95.920502 1.906929 7.140678
v 95.920502 0.000000 7.140678
v -86.190094 1.906929 7.140678
v 95.920502 1.906929 7.140678
v 95.920502 1.906929 3.331012
v -86.190094 1.906929 3.331012
v -86.190094 0.000000 7.140678
v -86.190094 1.906929 7.140678
v -86.190094 91.926292 0.952820
v 95.920502 91.926292 0.952820
v 95.920502 1.906929 0.952806
v -83.406693 3.828522 0.952806
v 93.137100 3.828522 0.952806
v -86.190094 1.906929 0.952806
v -83.406693 90.004700 3.331026
v 93.137100 90.004700 3.331026
v 95.920502 91.926292 3.331026
v -86.190094 91.926292 3.331026
v -83.406693 3.828522 3.331012
v -86.190094 1.906929 3.331012
v 93.137100 3.828522 3.331012
v 95.920502 1.906929 3.331012
v 4.976432 -7.750259 5.449060
v 5.156398 -7.750259 5.579813
v 5.225139 -7.750259 5.791374
v 5.156398 -7.750259 6.002936
v 4.976432 -7.750259 6.133689
v 4.753983 -7.750259 6.133689
v 4.574018 -7.750259 6.002936
v 4.505277 -7.750259 5.791374
v 4.574018 -7.750259 5.579813
v 4.753983 -7.750259 5.449060
v 5.156398 -6.316597 5.522436
v 5.225139 -6.314133 5.733899
v 5.225139 -7.750259 5.791374
v 5.156398 -7.750259 5.579813
v 4.976432 -6.318115 5.391744
v 4.976432 -7.750259 5.449060
v 4.753983 -6.318115 5.391744
v 4.753983 -7.750259 5.449060
v 4.574018 -6.316597 5.522436
v 4.574018 -7.750259 5.579813
v 4.505277 -6.314133 5.733899
v 4.505277 -7.750259 5.791374
v 4.574018 -6.311668 5.945362
v 4.574018 -7.750259 6.002936
v 4.753983 -6.310143 6.076054
v 4.753983 -7.750259 6.133689
v 4.976432 -6.310143 6.076054
v 4.976432 -7.750259 6.133689
v 5.156398 -6.311668 5.945362
v 5.156398 -7.750259 6.002936
v 5.156398 -4.884262 5.350360
v 5.225139 -4.879341 5.561527
v 4.976432 -4.887314 5.219851
v 4.753983 -4.887314 5.219851
v 4.574018 -4.884262 5.350360
v 4.505277 -4.879341 5.561527
v 4.574018 -4.874413 5.772695
v 4.753983 -4.871368 5.903203
v 4.976432 -4.871368 5.903203
v 5.156398 -4.874413 5.772695
v 5.156398 -3.454605 5.063745
v 5.225139 -3.447220 5.274419
v 4.976432 -3.459167 4.933540
v 4.753983 -3.459167 4.933540
v 4.574018 -3.454605 5.063745
v 4.505277 -3.447220 5.274419
v 4.574018 -3.439827 5.485094
v 4.753983 -3.435265 5.615298
v 4.976432 -3.435265 5.615298
v 5.156398 -3.439827 5.485094
v 5.156398 -2.028961 4.662858
v 5.225139 -2.019119 4.872843
v 4.976432 -2.035034 4.533080
v 4.753983 -2.035034 4.533080
v 4.574018 -2.028961 4.662858
v 4.505277 -2.019119 4.872843
v 4.574018 -2.009277 5.082829
v 4.753983 -2.003204 5.212606
v 4.976432 -2.003204 5.212606
v 5.156398 -2.009277 5.082829
v 5.156398 -0.608643 4.148074
v 5.225139 -0.596359 4.357173
v 4.976432 -0.616234 4.018843
v 4.753983 -0.616234 4.018843
v 4.574018 -0.608643 4.148074
v 4.505277 -0.596359 4.357173
v 4.574018 -0.584084 4.566273
v 4.753983 -0.576492 4.695504
v 4.976432 -0.576492 4.695504
v 5.156398 -0.584084 4.566273
v 5.156398 0.805000 3.519872
v 5.225138 0.819717 3.727892
v 4.976432 0.795906 3.391309
v 4.753983 0.795906 3.391309
v 4.574018 0.805000 3.519872
v 4.505277 0.819717 3.727892
v 4.574018 0.834435 3.935911
v 4.753983 0.843521 4.064474
v 4.976432 0.843521 4.064474
v 5.156398 0.834435 3.935911
v 4.574018 0.834435 3.935911
v 4.753983 0.843521 4.064474
v 4.976432 0.843521 4.064474
v 5.156398 0.834435 3.935911
v 5.225138 0.819717 3.727892
v 5.156398 0.805000 3.519872
v 4.976432 0.795906 3.391309
v 4.753983 0.795906 3.391309
v 4.574018 0.805000 3.519872
v 4.505277 0.819717 3.727892
vn -0.0000 -0.0000 -1.0000
vn -0.0000 -0.0000 1.0000
vn -0.0000 -1.0000 -0.0000
vn 1.0000 -0.0000 -0.0000
vn -0.0000 1.0000 -0.0000
vn -1.0000 -0.0000 -0.0000
vn 0.0409 -0.0000 -0.9992
vn -0.0409 -0.0000 -0.9992
vn 0.0409 -0.0000 0.9992
vn -0.0409 -0.0000 0.9992
vn 0.0620 -0.9981 -0.0000
vn -0.0620 -0.9981 -0.0000
vn -0.0620 0.9981 -0.0000
vn 0.0620 0.9981 -0.0000
vn 0.0001 -1.0000 -0.0000
vn 0.7834 -0.0488 -0.6197
vn 0.9999 0.0019 0.0122
vn 0.9999 0.0005 0.0124
vn 0.7839 -0.0248 -0.6204
vn 0.2493 -0.0779 -0.9653
vn 0.2491 -0.0387 -0.9677
vn -0.2493 -0.0779 -0.9653
vn -0.2491 -0.0387 -0.9677
vn -0.7834 -0.0488 -0.6196
vn -0.7839 -0.0248 -0.6204
vn -0.9999 0.0019 0.0122
vn -0.9999 0.0005 0.0124
vn -0.7694 0.0517 0.6366
vn -0.7698 0.0255 0.6378
vn -0.2397 0.0765 0.9678
vn -0.2393 0.0388 0.9702
vn 0.2397 0.0765 0.9678
vn 0.2393 0.0388 0.9702
vn 0.7694 0.0517 0.6366
vn 0.7698 0.0255 0.6378
vn 0.7812 -0.0972 -0.6167
vn 0.9999 0.0037 0.0117
vn 0.2492 -0.1544 -0.9560
vn -0.2492 -0.1544 -0.9560
vn -0.7812 -0.0972 -0.6167
vn -0.9999 0.0037 0.0117
vn -0.7677 0.1029 0.6325
vn -0.2403 0.1516 0.9588
vn 0.2403 0.1516 0.9588
vn 0.7677 0.1029 0.6325
vn 0.7777 -0.1449 -0.6118
vn 0.9999 0.0053 0.0109
vn 0.2490 -0.2284 -0.9412
vn -0.2490 -0.2284 -0.9412
vn -0.7777 -0.1449 -0.6118
vn -0.9999 0.0053 0.0109
vn -0.7648 0.1529 0.6259
vn -0.2410 0.2244 0.9442
vn 0.2410 0.2244 0.9442
vn 0.7648 0.1529 0.6259
vn 0.7729 -0.1916 -0.6049
vn 0.9999 0.0067 0.0099
vn 0.2484 -0.2989 -0.9214
vn -0.2484 -0.2989 -0.9214
vn -0.7729 -0.1916 -0.6049
vn -0.9999 0.0067 0.0099
vn -0.7608 0.2013 0.6170
vn -0.2416 0.2938 0.9248
vn 0.2416 0.2938 0.9248
vn 0.7608 0.2013 0.6170
vn 0.7670 -0.2369 -0.5963
vn 0.9999 0.0078 0.0088
vn 0.2474 -0.3649 -0.8976
vn -0.2474 -0.3649 -0.8976
vn -0.7671 -0.2369 -0.5962
vn -0.9999 0.0078 0.0088
vn -0.7558 0.2477 0.6062
vn -0.2418 0.3591 0.9014
vn 0.2418 0.3591 0.9014
vn 0.7558 0.2477 0.6062
vn 0.6901 -0.2939 -0.6614
vn 0.9928 -0.0486 -0.1093
vn 0.1968 -0.3982 -0.8960
vn -0.1968 -0.3982 -0.8960
vn -0.6901 -0.2939 -0.6614
vn -0.9928 -0.0486 -0.1093
vn -0.8222 0.2311 0.5201
vn -0.2811 0.3897 0.8770
vn 0.2811 0.3897 0.8770
vn 0.8222 0.2311 0.5201
vn -0.0000 0.9975 -0.0705
vn -0.0001 0.9975 -0.0706
vn 0.0001 0.9975 -0.0706
vn -0.0000 0.9975 -0.0706
vt 0.391347 0.658261
vt 0.155516 0.658261
vt 0.391347 0.663683
vt 0.155516 0.663683
vt 0.364504 0.662464
vt 0.364504 0.661059
vt 0.233851 0.661059
vt 0.233851 0.662464
vt 0.150506 0.664595
vt 0.150506 0.657349
vt 0.396356 0.664595
vt 0.396356 0.657349
vt 0.155516 0.657144
vt 0.391347 0.657144
vt 0.155516 0.664800
vt 0.391347 0.664800
vt 0.158166 0.659467
vt 0.388696 0.659467
vt 0.158166 0.662477
vt 0.388696 0.662477
vt 0.708172 0.878522
vt 0.708172 0.874448
vt 0.659040 0.874448
vt 0.659040 0.878522
vt 0.658265 0.878613
vt 0.658265 0.874357
vt 0.658265 0.875009
vt 0.658265 0.879265
vt 0.476946 0.931229
vt 0.476946 0.669737
vt 0.082171 0.669737
vt 0.082171 0.931229
vt 0.708947 0.879265
vt 0.708947 0.875009
vt 0.708947 0.874357
vt 0.708947 0.878613
vt 0.364504 0.660283
vt 0.233851 0.660283
vt 0.233851 0.661688
vt 0.233851 0.663939
vt 0.364504 0.663939
vt 0.364504 0.664715
vt 0.233851 0.664715
vt 0.364504 0.661688
vt 0.362507 0.659501
vt 0.235848 0.659501
vt 0.708172 0.875100
vt 0.659040 0.875100
vt 0.708172 0.879174
vt 0.659040 0.879174
vt 0.299098 0.666870
vt 0.298968 0.666948
vt 0.298919 0.667073
vt 0.298968 0.667198
vt 0.299098 0.667275
vt 0.299257 0.667275
vt 0.299386 0.667198
vt 0.299436 0.667073
vt 0.299386 0.666948
vt 0.299257 0.666870
vt 0.298969 0.666330
vt 0.298919 0.666454
vt 0.299098 0.666254
vt 0.299257 0.666254
vt 0.299386 0.666330
vt 0.299436 0.666454
vt 0.299386 0.666578
vt 0.299257 0.666655
vt 0.299098 0.666655
vt 0.298968 0.666578
vt 0.298969 0.665645
vt 0.298919 0.665768
vt 0.299098 0.665570
vt 0.299257 0.665570
vt 0.299386 0.665645
vt 0.299436 0.665768
vt 0.299386 0.665891
vt 0.299257 0.665967
vt 0.299098 0.665967
vt 0.298968 0.665891
vt 0.298969 0.664894
vt 0.298919 0.665016
vt 0.299098 0.664819
vt 0.299257 0.664819
vt 0.299386 0.664894
vt 0.299436 0.665016
vt 0.299386 0.665137
vt 0.299257 0.665212
vt 0.299098 0.665212
vt 0.298969 0.665137
vt 0.298969 0.664077
vt 0.298919 0.664197
vt 0.299098 0.664003
vt 0.299257 0.664003
vt 0.299386 0.664077
vt 0.299436 0.664197
vt 0.299386 0.664317
vt 0.299257 0.664391
vt 0.299098 0.664391
vt 0.298969 0.664317
vt 0.298969 0.663195
vt 0.298919 0.663313
vt 0.299098 0.663121
vt 0.299257 0.663121
vt 0.299386 0.663195
vt 0.299436 0.663313
vt 0.299386 0.663432
vt 0.299257 0.663505
vt 0.299098 0.663505
vt 0.298969 0.663432
vt 0.298969 0.662248
vt 0.298919 0.662365
vt 0.299098 0.662176
vt 0.299257 0.662176
vt 0.299386 0.662248
vt 0.299436 0.662365
vt 0.299386 0.662482
vt 0.299257 0.662554
vt 0.299098 0.662554
vt 0.298969 0.662482
s 0
usemtl Material_27
f 1/1/1 2/1/1 3/2/1
f 3/2/1 4/2/1 1/1/1
f 5/3/2 6/3/2 7/4/2
f 7/4/2 8/4/2 5/3/2
f 9/5/3 10/6/3 11/7/3
f 11/7/3 12/8/3 9/5/3
f 13/9/4 14/9/4 15/10/4
f 15/10/4 16/10/4 13/9/4
f 17/4/5 18/2/5 19/1/5
f 19/1/5 20/3/5 17/4/5
f 21/11/6 22/11/6 23/12/6
f 23/12/6 24/12/6 21/11/6
f 25/13/7 26/13/7 27/10/7
f 27/10/7 28/10/7 25/13/7
f 29/14/8 30/14/8 31/12/8
f 31/12/8 32/12/8 29/14/8
f 33/15/9 34/15/9 35/9/9
f 35/9/9 36/9/9 33/15/9
f 37/16/10 38/16/10 39/11/10
f 39/11/10 40/11/10 37/16/10
f 41/15/11 42/13/11 43/10/11
f 43/10/11 44/9/11 41/15/11
f 45/14/12 46/16/12 47/11/12
f 47/11/12 48/12/12 45/14/12
f 49/16/13 50/14/13 51/12/13
f 51/12/13 52/11/13 49/16/13
f 53/13/14 54/15/14 55/9/14
f 55/9/14 56/10/14 53/13/14
f 57/13/6 58/13/6 59/2/6
f 59/2/6 60/2/6 57/13/6
f 61/15/6 57/13/6 60/2/6
f 60/2/6 62/4/6 61/15/6
f 63/15/6 61/15/6 62/4/6
f 62/4/6 64/4/6 63/15/6
f 58/13/6 63/15/6 64/4/6
f 64/4/6 59/2/6 58/13/6
f 65/14/4 66/14/4 67/1/4
f 67/1/4 68/1/4 65/14/4
f 69/16/4 65/14/4 68/1/4
f 68/1/4 70/3/4 69/16/4
f 71/16/4 69/16/4 70/3/4
f 70/3/4 72/3/4 71/16/4
f 66/14/4 71/16/4 72/3/4
f 72/3/4 67/1/4 66/14/4
f 73/17/3 74/18/3 75/1/3
f 75/1/3 76/2/3 73/17/3
f 77/19/3 73/17/3 76/2/3
f 76/2/3 78/4/3 77/19/3
f 79/20/3 77/19/3 78/4/3
f 78/4/3 80/3/3 79/20/3
f 74/18/3 79/20/3 80/3/3
f 80/3/3 75/1/3 74/18/3
f 81/21/1 82/22/1 83/23/1
f 83/23/1 84/24/1 81/21/1
f 85/25/4 86/26/4 87/27/4
f 87/27/4 88/28/4 85/25/4
f 89/29/2 90/30/2 91/31/2
f 91/31/2 92/32/2 89/29/2
f 93/33/6 94/34/6 95/35/6
f 95/35/6 96/36/6 93/33/6
f 97/37/1 98/38/1 99/7/1
f 99/7/1 100/6/1 97/37/1
f 101/38/4 102/39/4 103/8/4
f 103/8/4 104/7/4 101/38/4
f 105/40/2 106/41/2 107/42/2
f 107/42/2 108/43/2 105/40/2
f 109/44/6 110/37/6 111/6/6
f 111/6/6 112/5/6 109/44/6
f 113/43/3 114/42/3 9/5/3
f 9/5/3 12/8/3 113/43/3
f 115/40/4 116/43/4 103/8/4
f 103/8/4 102/39/4 115/40/4
f 117/41/5 118/40/5 119/39/5
f 119/39/5 120/44/5 117/41/5
f 121/42/6 122/41/6 109/44/6
f 109/44/6 112/5/6 121/42/6
f 83/23/1 82/22/1 123/35/1
f 123/35/1 124/26/1 83/23/1
f 84/24/1 83/23/1 124/26/1
f 124/26/1 125/25/1 84/24/1
f 126/45/1 127/46/1 98/38/1
f 98/38/1 97/37/1 126/45/1
f 82/22/1 81/21/1 128/36/1
f 128/36/1 123/35/1 82/22/1
f 129/47/2 130/48/2 131/27/2
f 131/27/2 132/34/2 129/47/2
f 133/49/2 129/47/2 132/34/2
f 132/34/2 134/33/2 133/49/2
f 135/50/2 133/49/2 134/33/2
f 134/33/2 136/28/2 135/50/2
f 130/48/2 135/50/2 136/28/2
f 136/28/2 131/27/2 130/48/2
f 137/51/3 138/52/3 139/53/3
f 139/53/15 140/54/15 141/55/15
f 141/55/3 142/56/3 143/57/3
f 139/53/3 141/55/3 143/57/3
f 143/57/3 144/58/3 145/59/3
f 139/53/3 143/57/3 145/59/3
f 137/51/3 139/53/3 145/59/3
f 137/51/3 145/59/3 146/60/3
s 1
f 147/61/16 148/62/17 149/53/18
f 149/53/18 150/52/19 147/61/16
f 151/63/20 147/61/16 150/52/19
f 150/52/19 152/51/21 151/63/20
f 153/64/22 151/63/20 152/51/21
f 152/51/21 154/60/23 153/64/22
f 155/65/24 153/64/22 154/60/23
f 154/60/23 156/59/25 155/65/24
f 157/66/26 155/65/24 156/59/25
f 156/59/25 158/58/27 157/66/26
f 159/67/28 157/66/26 158/58/27
f 158/58/27 160/57/29 159/67/28
f 161/68/30 159/67/28 160/57/29
f 160/57/29 162/56/31 161/68/30
f 163/69/32 161/68/30 162/56/31
f 162/56/31 164/55/33 163/69/32
f 165/70/34 163/69/32 164/55/33
f 164/55/33 166/54/35 165/70/34
f 148/62/17 165/70/34 166/54/35
f 166/54/35 149/53/18 148/62/17
f 167/71/36 168/72/37 148/62/17
f 148/62/17 147/61/16 167/71/36
f 169/73/38 167/71/36 147/61/16
f 147/61/16 151/63/20 169/73/38
f 170/74/39 169/73/38 151/63/20
f 151/63/20 153/64/22 170/74/39
f 171/75/40 170/74/39 153/64/22
f 153/64/22 155/65/24 171/75/40
f 172/76/41 171/75/40 155/65/24
f 155/65/24 157/66/26 172/76/41
f 173/77/42 172/76/41 157/66/26
f 157/66/26 159/67/28 173/77/42
f 174/78/43 173/77/42 159/67/28
f 159/67/28 161/68/30 174/78/43
f 175/79/44 174/78/43 161/68/30
f 161/68/30 163/69/32 175/79/44
f 176/80/45 175/79/44 163/69/32
f 163/69/32 165/70/34 176/80/45
f 168/72/37 176/80/45 165/70/34
f 165/70/34 148/62/17 168/72/37
f 177/81/46 178/82/47 168/72/37
f 168/72/37 167/71/36 177/81/46
f 179/83/48 177/81/46 167/71/36
f 167/71/36 169/73/38 179/83/48
f 180/84/49 179/83/48 169/73/38
f 169/73/38 170/74/39 180/84/49
f 181/85/50 180/84/49 170/74/39
f 170/74/39 171/75/40 181/85/50
f 182/86/51 181/85/50 171/75/40
f 171/75/40 172/76/41 182/86/51
f 183/87/52 182/86/51 172/76/41
f 172/76/41 173/77/42 183/87/52
f 184/88/53 183/87/52 173/77/42
f 173/77/42 174/78/43 184/88/53
f 185/89/54 184/88/53 174/78/43
f 174/78/43 175/79/44 185/89/54
f 186/90/55 185/89/54 175/79/44
f 175/79/44 176/80/45 186/90/55
f 178/82/47 186/90/55 176/80/45
f 176/80/45 168/72/37 178/82/47
f 187/91/56 188/92/57 178/82/47
f 178/82/47 177/81/46 187/91/56
f 189/93/58 187/91/56 177/81/46
f 177/81/46 179/83/48 189/93/58
f 190/94/59 189/93/58 179/83/48
f 179/83/48 180/84/49 190/94/59
f 191/95/60 190/94/59 180/84/49
f 180/84/49 181/85/50 191/95/60
f 192/96/61 191/95/60 181/85/50
f 181/85/50 182/86/51 192/96/61
f 193/97/62 192/96/61 182/86/51
f 182/86/51 183/87/52 193/97/62
f 194/98/63 193/97/62 183/87/52
f 183/87/52 184/88/53 194/98/63
f 195/99/64 194/98/63 184/88/53
f 184/88/53 185/89/54 195/99/64
f 196/100/65 195/99/64 185/89/54
f 185/89/54 186/90/55 196/100/65
f 188/92/57 196/100/65 186/90/55
f 186/90/55 178/82/47 188/92/57
f 197/101/66 198/102/67 188/92/57
f 188/92/57 187/91/56 197/101/66
f 199/103/68 197/101/66 187/91/56
f 187/91/56 189/93/58 199/103/68
f 200/104/69 199/103/68 189/93/58
f 189/93/58 190/94/59 200/104/69
f 201/105/70 200/104/69 190/94/59
f 190/94/59 191/95/60 201/105/70
f 202/106/71 201/105/70 191/95/60
f 191/95/60 192/96/61 202/106/71
f 203/107/72 202/106/71 192/96/61
f 192/96/61 193/97/62 203/107/72
f 204/108/73 203/107/72 193/97/62
f 193/97/62 194/98/63 204/108/73
f 205/109/74 204/108/73 194/98/63
f 194/98/63 195/99/64 205/109/74
f 206/110/75 205/109/74 195/99/64
f 195/99/64 196/100/65 206/110/75
f 198/102/67 206/110/75 196/100/65
f 196/100/65 188/92/57 198/102/67
f 207/111/76 208/112/77 198/102/67
f 198/102/67 197/101/66 207/111/76
f 209/113/78 207/111/76 197/101/66
f 197/101/66 199/103/68 209/113/78
f 210/114/79 209/113/78 199/103/68
f 199/103/68 200/104/69 210/114/79
f 211/115/80 210/114/79 200/104/69
f 200/104/69 201/105/70 211/115/80
f 212/116/81 211/115/80 201/105/70
f 201/105/70 202/106/71 212/116/81
f 213/117/82 212/116/81 202/106/71
f 202/106/71 203/107/72 213/117/82
f 214/118/83 213/117/82 203/107/72
f 203/107/72 204/108/73 214/118/83
f 215/119/84 214/118/83 204/108/73
f 204/108/73 205/109/74 215/119/84
f 216/120/85 215/119/84 205/109/74
f 205/109/74 206/110/75 216/120/85
f 208/112/77 216/120/85 206/110/75
f 206/110/75 198/102/67 208/112/77
s 0
f 217/117/86 218/118/86 219/119/86
f 219/119/87 220/120/87 221/112/87
f 221/112/88 222/111/88 223/113/88
f 219/119/89 221/112/89 223/113/89
f 223/113/86 224/114/86 225/115/86
f 219/119/87 223/113/87 225/115/87
f 217/117/88 219/119/88 225/115/88
f 217/117/89 225/115/89 226/116/89
